# xmcd
#
# Track frame offsets: 
#        150
#        15593
#        29882
#        41120
#        59397
#        73304
#        85232
#        96283
#        112231
#        125875
#        138976
#        149324
#        162354
#        174660
#
# Disc length: 2568 seconds
#
# Revision: 4
# Processed by: cddbd v1.5.2PL0 Copyright (c) Steve Scherf et al.
# Submitted via: ExactAudioCopyFreeDBPlugin 1.0
#
DISCID=db0a060e
DTITLE=K. J. Spannhoff, G. Skitschak - Stringtime
DYEAR=1996
DGENRE=Instrumental
TTITLE0=E. John - Your song
TTITLE1=J. Lennon - Imagine
TTITLE2=G. Geld - P. Udell - Sealed with a kiss
TTITLE3=G. Rafferty - Baker street
TTITLE4=Peretti - Creatore - Weiss - Can't help falling in love
TTITLE5=N. Holder - J. Lea - Far, far away
TTITLE6=E. Clapton - Layla
TTITLE7=V. J. Martin - Only you
TTITLE8=E. Clapton - Wonderful tonight
TTITLE9=G. Harrison - Something
TTITLE10=M. Dadi - L'echo des savanes
TTITLE11=R. Presley - Love is all around
TTITLE12=J. Lennon - P. McCartney - And I love her
TTITLE13=K. J. Spannhoff - G. Skitschak - White nights in Salzburg
EXTD=YEAR: 1996
EXTT0=
EXTT1=
EXTT2=
EXTT3=
EXTT4=
EXTT5=
EXTT6=
EXTT7=
EXTT8=
EXTT9=
EXTT10=
EXTT11=
EXTT12=
EXTT13=
PLAYORDER=
